<svg xmlns="http://www.w3.org/2000/svg" xmlns:xlink="http://www.w3.org/1999/xlink" width="35.996" height="35.996" viewBox="0 0 35.996 35.996">
  <defs>
    <linearGradient id="linear-gradient" y1="0.5" x2="1" y2="0.5" gradientUnits="objectBoundingBox">
      <stop offset="0" stop-color="#189332"/>
      <stop offset="1" stop-color="#1b984b"/>
    </linearGradient>
  </defs>
  <g id="Group_58" data-name="Group 58" transform="translate(-32.225 -2711.548)">
    <rect id="Rectangle_64" data-name="Rectangle 64" width="35.996" height="35.996" rx="1.723" transform="translate(32.225 2711.548)" fill="url(#linear-gradient)"/>
    <g id="pfhEef.tif">
      <g id="Group_57" data-name="Group 57">
        <path id="Path_923" data-name="Path 923" d="M60.181,2731.445q0,3.541,0,7.084a.753.753,0,0,1-.832.845q-6.588,0-13.177,0a.748.748,0,0,1-.848-.845c0-.148.007-.3,0-.445s.031-.186.177-.185c1.093.006,2.186,0,3.279,0q4.879,0,9.757,0c.148,0,.176-.052.176-.187q0-5.455,0-10.909c0-.533-.01-1.067.005-1.6.006-.2-.07-.228-.243-.227-.918.007-1.835.006-2.753,0a.725.725,0,0,1-.805-.818c0-.917,0-1.835.005-2.752,0-.185-.058-.225-.23-.224q-3.511.008-7.023,0c-.236,0-.473.006-.708,0-.137,0-.172.048-.172.177,0,1.241,0,2.482,0,3.723,0,.864,0,1.727.005,2.591,0,.162-.041.222-.211.216q-.537-.019-1.073,0c-.154,0-.189-.043-.188-.192q.006-2.976,0-5.951,0-.608,0-1.215a.738.738,0,0,1,.817-.814q2.307,0,4.615,0c1.558,0,3.117.005,4.676,0a1.123,1.123,0,0,1,.864.351c1.209,1.224,2.431,2.435,3.649,3.65a.739.739,0,0,1,.234.541v7.186Z" fill="#f2f2f2"/>
        <path id="Path_924" data-name="Path 924" d="M46.1,2733.266c-.823,0-1.646,0-2.469,0-.137,0-.193.019-.156.178.062.268.1.542.148.815.021.136.066.2.226.2,1.4-.008,2.806,0,4.209,0,.309,0,.451.087.452.28s-.14.277-.453.277H43.57c-.272,0-.345-.052-.408-.316q-.7-2.928-1.4-5.856c-.08-.331-.007-.281-.364-.285-.27,0-.54,0-.809,0-.2,0-.316-.1-.322-.261s.113-.28.32-.282c.431,0,.863,0,1.294,0a.3.3,0,0,1,.315.254c.061.249.125.5.18.746a.177.177,0,0,0,.2.164q2.913-.008,5.827,0c.391,0,.782,0,1.173,0,.132,0,.181.025.144.171q-.472,1.881-.932,3.766a.185.185,0,0,1-.216.17c-.823-.007-1.646,0-2.469,0Z" fill="#f2f2f2"/>
        <path id="Path_925" data-name="Path 925" d="M53.566,2734.544c-1.12,0-2.239,0-3.359,0-.158,0-.195-.034-.149-.191.108-.375.2-.754.3-1.134a.165.165,0,0,1,.193-.147q3.208,0,6.416,0c.149,0,.179.054.176.188-.007.358-.01.716,0,1.073.006.172-.055.216-.218.215-1.12-.006-2.239,0-3.359,0Z" fill="#f2f2f2"/>
        <path id="Path_926" data-name="Path 926" d="M54.128,2730.281c-.93,0-1.861,0-2.791,0-.158,0-.213-.023-.16-.2.112-.367.2-.74.293-1.113.026-.11.065-.156.186-.156q2.66,0,5.32,0c.118,0,.167.028.164.157-.007.377-.008.755,0,1.133,0,.142-.038.181-.181.18-.944-.007-1.888,0-2.832,0Z" fill="#f2f2f2"/>
        <path id="Path_927" data-name="Path 927" d="M50.829,2726.019c-.761,0-1.523,0-2.285,0-.143,0-.184-.042-.181-.183.009-.37.007-.741,0-1.112,0-.125.026-.179.167-.178q2.306,0,4.61,0c.115,0,.169.025.167.156q-.012.587,0,1.173c0,.143-.07.145-.175.145C52.366,2726.018,51.6,2726.019,50.829,2726.019Z" fill="#f2f2f2"/>
        <path id="Path_928" data-name="Path 928" d="M44.116,2736.924a.657.657,0,1,1,.669-.662A.655.655,0,0,1,44.116,2736.924Z" fill="#f2f2f2"/>
        <path id="Path_929" data-name="Path 929" d="M47.556,2736.923a.656.656,0,1,1,.649-.658A.647.647,0,0,1,47.556,2736.923Z" fill="#f2f2f2"/>
      </g>
    </g>
  </g>
</svg>
