<svg width="118" height="118" viewBox="0 0 118 118" fill="none" xmlns="http://www.w3.org/2000/svg"><g id="Icon 1"><g id="Page-1"><g id="register-successfully-Message"><g id="Group-5"><g id="Icon"><path id="opacity_2" opacity="0.6" fill-rule="evenodd" clip-rule="evenodd" d="M109 57.9924C109.004 85.6064 86.6211 107.996 59.0079 108C31.3941 108.004 9.00443 85.6215 9 58.007C8.99557 30.393 31.3789 8.00443 58.9927 8C86.6065 7.99557 108.996 30.3778 109 57.9924Z" fill="#189332"/><path id="opacity_1" opacity="0.603008" fill-rule="evenodd" clip-rule="evenodd" d="M99 58.4943C99.0032 80.3097 81.3207 97.9968 59.5057 98C37.6913 98.0032 20.0032 80.321 20 58.5063C19.9968 36.6903 37.6799 19.0032 59.4937 19C81.3087 18.9968 98.9968 36.679 99 58.4943Z" fill="#189332"/><path id="Fill-7" fill-rule="evenodd" clip-rule="evenodd" d="M81 58.9971C81.0019 71.147 71.1527 80.9981 59.0029 81C46.8524 81.0019 37.0019 71.154 37 59.0035C36.9987 46.8536 46.846 37.0019 58.9959 37C71.1464 36.9981 80.9981 46.8473 81 58.9971Z" fill="#F6FEFF"/><path id="Fill-9" fill-rule="evenodd" clip-rule="evenodd" d="M86 57.9966C86.0017 72.9061 73.9138 84.9983 59.0034 85C44.0929 85.0034 32.0017 72.9145 32 58.005C31.9966 43.0939 44.0845 31.0034 58.995 31C73.9054 30.9983 85.9966 43.0855 86 57.9966Z" fill="#189332"/><g id="icon/rounded/action/done_24px"><g id="Group"><path id="icon/action/done_24px" fill-rule="evenodd" clip-rule="evenodd" d="M52.9333 65.1829L47.3917 59.6412C47.099 59.3449 46.6998 59.1781 46.2833 59.1781C45.8668 59.1781 45.4677 59.3449 45.175 59.6412C44.5575 60.2587 44.5575 61.2404 45.175 61.8579L51.8092 68.4921C52.4267 69.1096 53.4242 69.1096 54.0417 68.4921L70.825 51.7246C71.4425 51.1071 71.4425 50.1254 70.825 49.5079C70.5323 49.2116 70.1332 49.0448 69.7167 49.0448C69.3002 49.0448 68.901 49.2116 68.6083 49.5079L52.9333 65.1829Z" fill="white"/></g></g><g id="rotate"><path id="Stroke-13" d="M38 5.9778C44.4945 3.41242 51.5737 2.00127 58.9834 2C89.849 1.99557 114.991 26.4502 116 57" stroke="#189332" stroke-width="3" stroke-dasharray="2.99 2.99"/><path id="Stroke-19" d="M10 87C4.90853 78.7635 2.00138 69.2442 2 59.1024C1.99931 54.2342 2.66845 49.5093 3.92686 45" stroke="#189332" stroke-width="3" stroke-dasharray="2.93 2.93"/><path id="Stroke-25" d="M77 113.066C71.4514 114.97 65.5389 115.999 59.4033 116C49.0809 116.002 39.3894 113.095 31 108" stroke="#189332" stroke-width="3" stroke-dasharray="2.9 2.9"/></g></g></g></g></g></g><style> #rotate , #opacity_1 , #opacity_2 { transform-origin: center; transform-box: fill-box; } #rotate{ animation: spin 5s linear infinite; } #opacity_1{ animation: opacity 4s linear infinite alternate; } #opacity_2 { animation: opacity 3s linear infinite alternate; } @keyframes opacity { 0%, 100% { opacity: 1 } 50% { opacity: .6 } } @keyframes spin { 0% { -webkit-transform: rotate(0deg); -ms-transform: rotate(0deg); transform: rotate(0deg); } 100% { -webkit-transform: rotate(360deg); -ms-transform: rotate(360deg); transform: rotate(360deg); } }</style></svg>