<svg xmlns="http://www.w3.org/2000/svg" width="6.74" height="14.509" viewBox="0 0 6.74 14.509">
  <g id="Group_71" data-name="Group 71" transform="translate(-164.528 -3869.378)">
    <g id="Group_70" data-name="Group 70">
      <path id="Path_937" data-name="Path 937" d="M166.013,3876.69v7.014a.183.183,0,0,0,.183.183h2.6a.182.182,0,0,0,.182-.183v-7.128h1.889a.183.183,0,0,0,.182-.168l.181-2.148a.182.182,0,0,0-.182-.2h-2.07v-1.524a.646.646,0,0,1,.647-.646h1.455a.183.183,0,0,0,.183-.183v-2.148a.183.183,0,0,0-.183-.183h-2.459a2.613,2.613,0,0,0-2.613,2.613v2.071h-1.3a.183.183,0,0,0-.183.183v2.148a.183.183,0,0,0,.183.183h1.3Z" fill="#000" fill-rule="evenodd"/>
    </g>
  </g>
</svg>
