<svg xmlns="http://www.w3.org/2000/svg" width="15.134" height="15.134" viewBox="0 0 15.134 15.134">
  <g id="Group_73" data-name="Group 73" transform="translate(-127.519 -3868.968)">
    <g id="Group_72" data-name="Group 72">
      <path id="Path_938" data-name="Path 938" d="M139.067,3871.754a.89.89,0,1,0,.89.89A.89.89,0,0,0,139.067,3871.754Zm-3.956,1.141a3.738,3.738,0,1,0,3.738,3.738A3.742,3.742,0,0,0,135.111,3872.9Zm0,6.132a2.394,2.394,0,1,1,2.394-2.394A2.4,2.4,0,0,1,135.111,3879.027Zm7.542-5.5a4.559,4.559,0,0,0-4.559-4.558h-6.017a4.558,4.558,0,0,0-4.558,4.558v6.018a4.558,4.558,0,0,0,4.558,4.558h6.017a4.559,4.559,0,0,0,4.559-4.558Zm-1.428,6.018a3.131,3.131,0,0,1-3.131,3.13h-6.017a3.131,3.131,0,0,1-3.131-3.13v-6.018a3.13,3.13,0,0,1,3.131-3.13h6.017a3.13,3.13,0,0,1,3.131,3.13Z" fill="#000"/>
    </g>
  </g>
</svg>
