<svg xmlns="http://www.w3.org/2000/svg" width="12.763" height="12.19" viewBox="0 0 12.763 12.19">
  <g id="Group_78" data-name="Group 78" transform="translate(-196.843 -3870.076)">
    <g id="Group_76" data-name="Group 76">
      <g id="Group_75" data-name="Group 75">
        <g id="Group_74" data-name="Group 74">
          <path id="Path_939" data-name="Path 939" d="M209.606,3877.553v4.511a.2.2,0,0,1-.2.2h-2.329a.2.2,0,0,1-.2-.2v-4.2c0-1.1-.394-1.858-1.384-1.858a1.494,1.494,0,0,0-1.4,1,1.873,1.873,0,0,0-.091.667v4.388a.2.2,0,0,1-.2.2h-2.328a.2.2,0,0,1-.2-.2c.006-1.117.029-6.539.005-7.813a.2.2,0,0,1,.2-.2H203.8a.2.2,0,0,1,.2.2v.963c0,.009-.013.018-.018.027H204v-.027a2.715,2.715,0,0,1,2.463-1.358c1.8,0,3.146,1.175,3.146,3.7Zm-12.383,4.713h2.329a.2.2,0,0,0,.2-.2v-7.815a.2.2,0,0,0-.2-.2h-2.329a.2.2,0,0,0-.2.2v7.815A.2.2,0,0,0,197.223,3882.266Z" fill="#000"/>
        </g>
      </g>
    </g>
    <g id="Group_77" data-name="Group 77">
      <circle id="Ellipse_1" data-name="Ellipse 1" cx="1.463" cy="1.463" r="1.463" transform="translate(196.843 3870.076)" fill="#000"/>
    </g>
  </g>
</svg>
