<svg xmlns="http://www.w3.org/2000/svg" xmlns:xlink="http://www.w3.org/1999/xlink" width="151.396" height="27.262" viewBox="0 0 151.396 27.262">
  <defs>
    <linearGradient id="linear-gradient" y1="0.5" x2="1" y2="0.5" gradientUnits="objectBoundingBox">
      <stop offset="0" stop-color="#189332"/>
      <stop offset="1" stop-color="#1b984b"/>
    </linearGradient>
  </defs>
  <g id="Group_48" data-name="Group 48" transform="translate(-16.471 -16.309)">
    <g id="Group_47" data-name="Group 47">
      <g id="Group_46" data-name="Group 46">
        <path id="Path_885" data-name="Path 885" d="M21.734,40.187l1.272-2.039h.46L21.931,40.53v1.842h-.4V40.56l-1.5-2.412h.46Z" fill="#1d1d1b"/>
        <path id="Path_886" data-name="Path 886" d="M26.477,42.46a1.509,1.509,0,0,1-.548-.1,1.25,1.25,0,0,1-.446-.3,1.465,1.465,0,0,1-.3-.5,2.021,2.021,0,0,1-.11-.7,2.157,2.157,0,0,1,.088-.628,1.462,1.462,0,0,1,.263-.512,1.27,1.27,0,0,1,.438-.343,1.354,1.354,0,0,1,.614-.125,1.468,1.468,0,0,1,.622.125,1.27,1.27,0,0,1,.438.343,1.5,1.5,0,0,1,.263.5,2.164,2.164,0,0,1,.088.629,2.1,2.1,0,0,1-.1.658,1.428,1.428,0,0,1-.285.5,1.355,1.355,0,0,1-.446.329A1.37,1.37,0,0,1,26.477,42.46Zm1.031-1.608a2.138,2.138,0,0,0-.059-.5,1.224,1.224,0,0,0-.182-.41.864.864,0,0,0-.315-.27,1.012,1.012,0,0,0-.475-.1.975.975,0,0,0-.475.109.932.932,0,0,0-.321.285,1.206,1.206,0,0,0-.183.41,2.046,2.046,0,0,0-.059.482,1.935,1.935,0,0,0,.066.519,1.181,1.181,0,0,0,.2.409.844.844,0,0,0,.321.263,1.092,1.092,0,0,0,.921-.014.882.882,0,0,0,.322-.293,1.294,1.294,0,0,0,.182-.409A1.993,1.993,0,0,0,27.508,40.852Z" fill="#1d1d1b"/>
        <path id="Path_887" data-name="Path 887" d="M31.886,39.332h.351v3.04h-.351v-.416a1.917,1.917,0,0,1-.161.168,1.219,1.219,0,0,1-.475.285,1.055,1.055,0,0,1-.351.051,1.3,1.3,0,0,1-.512-.088.8.8,0,0,1-.328-.241.865.865,0,0,1-.183-.358,1.711,1.711,0,0,1-.059-.446v-2h.351v2a.866.866,0,0,0,.183.6.764.764,0,0,0,.6.212.816.816,0,0,0,.388-.088.842.842,0,0,0,.292-.241,1.158,1.158,0,0,0,.183-.365,1.524,1.524,0,0,0,.065-.461V39.332Z" fill="#1d1d1b"/>
        <path id="Path_888" data-name="Path 888" d="M34.751,42.372H34.4v-3.04h.351v.57h.014a1.064,1.064,0,0,1,.381-.512,1.153,1.153,0,0,1,.613-.146v.38a.975.975,0,0,0-.489.1.742.742,0,0,0-.307.27,1.162,1.162,0,0,0-.161.4,2.606,2.606,0,0,0-.044.483v1.5Z" fill="#1d1d1b"/>
        <path id="Path_889" data-name="Path 889" d="M40.437,40.267a3.069,3.069,0,0,1,.124-.87,2.272,2.272,0,0,1,.373-.709,1.668,1.668,0,0,1,.614-.475,1.9,1.9,0,0,1,.841-.175,1.992,1.992,0,0,1,.862.175,1.828,1.828,0,0,1,.621.475,2,2,0,0,1,.373.709,3.069,3.069,0,0,1,.124.87,3.02,3.02,0,0,1-.124.863,2.145,2.145,0,0,1-.373.7,1.812,1.812,0,0,1-.614.483,1.982,1.982,0,0,1-.855.175,1.939,1.939,0,0,1-.855-.175,1.677,1.677,0,0,1-.614-.483,2.3,2.3,0,0,1-.373-.7A2.758,2.758,0,0,1,40.437,40.267Zm1.974,1.879a1.517,1.517,0,0,0,.708-.154,1.4,1.4,0,0,0,.49-.417,1.976,1.976,0,0,0,.285-.6,2.783,2.783,0,0,0,.088-.709,2.644,2.644,0,0,0-.11-.789,1.726,1.726,0,0,0-.314-.6,1.283,1.283,0,0,0-.5-.373,1.659,1.659,0,0,0-.665-.132,1.42,1.42,0,0,0-.7.161,1.517,1.517,0,0,0-.489.424,1.941,1.941,0,0,0-.285.6,2.511,2.511,0,0,0-.088.709,2.838,2.838,0,0,0,.088.716,1.674,1.674,0,0,0,.285.6,1.337,1.337,0,0,0,.489.409A1.555,1.555,0,0,0,42.411,42.146Z" fill="#1d1d1b"/>
        <path id="Path_890" data-name="Path 890" d="M46.774,42.372h-.351v-3.04h.351v.57h.015a1.057,1.057,0,0,1,.38-.512,1.154,1.154,0,0,1,.614-.146v.38a.977.977,0,0,0-.49.1.742.742,0,0,0-.307.27,1.162,1.162,0,0,0-.161.4,2.605,2.605,0,0,0-.044.483v1.5Z" fill="#1d1d1b"/>
        <path id="Path_891" data-name="Path 891" d="M52.007,38.148h.351v4.224h-.351v-.533h-.015a1.03,1.03,0,0,1-.2.27,1.323,1.323,0,0,1-.263.19,1.481,1.481,0,0,1-.3.117,1.1,1.1,0,0,1-.3.044,1.487,1.487,0,0,1-.629-.124A1.155,1.155,0,0,1,49.88,42a1.472,1.472,0,0,1-.241-.5,2.475,2.475,0,0,1-.073-.628,2.443,2.443,0,0,1,.08-.614,1.586,1.586,0,0,1,.249-.512,1.242,1.242,0,0,1,.424-.351,1.287,1.287,0,0,1,.6-.131,1.432,1.432,0,0,1,.621.146,1.134,1.134,0,0,1,.468.424Zm0,2.7a1.529,1.529,0,0,0-.073-.49,1.143,1.143,0,0,0-.526-.68.917.917,0,0,0-.431-.1.976.976,0,0,0-.476.109.931.931,0,0,0-.328.3,1.307,1.307,0,0,0-.19.439,1.583,1.583,0,0,0-.044.533,1.608,1.608,0,0,0,.08.512,1.055,1.055,0,0,0,.219.373.939.939,0,0,0,.329.233,1.059,1.059,0,0,0,.41.081.956.956,0,0,0,.438-.1,1.049,1.049,0,0,0,.322-.271,1.273,1.273,0,0,0,.2-.409A1.989,1.989,0,0,0,52.007,40.845Z" fill="#1d1d1b"/>
        <path id="Path_892" data-name="Path 892" d="M54.748,40.94a1.637,1.637,0,0,0,.066.467,1.12,1.12,0,0,0,.19.38.838.838,0,0,0,.321.256.974.974,0,0,0,.446.1.938.938,0,0,0,.592-.182.918.918,0,0,0,.329-.519h.4a2.307,2.307,0,0,1-.168.4,1.259,1.259,0,0,1-.264.321,1.22,1.22,0,0,1-.372.212,1.708,1.708,0,0,1-1.133-.051,1.151,1.151,0,0,1-.431-.336,1.487,1.487,0,0,1-.256-.505,2.127,2.127,0,0,1-.081-.628,1.978,1.978,0,0,1,.1-.629,1.511,1.511,0,0,1,.278-.511,1.2,1.2,0,0,1,.439-.344,1.264,1.264,0,0,1,.584-.124,1.227,1.227,0,0,1,.987.431,1.852,1.852,0,0,1,.351,1.25H54.748Zm1.988-.3a1.539,1.539,0,0,0-.059-.417,1.094,1.094,0,0,0-.182-.343.841.841,0,0,0-.3-.227,1.04,1.04,0,0,0-.833,0,1.083,1.083,0,0,0-.307.234,1.063,1.063,0,0,0-.205.344,1.506,1.506,0,0,0-.1.409Z" fill="#1d1d1b"/>
        <path id="Path_893" data-name="Path 893" d="M59.462,42.372h-.351v-3.04h.351v.57h.015a1.057,1.057,0,0,1,.38-.512,1.154,1.154,0,0,1,.614-.146v.38a.977.977,0,0,0-.49.1.742.742,0,0,0-.307.27,1.162,1.162,0,0,0-.161.4,2.606,2.606,0,0,0-.044.483v1.5Z" fill="#1d1d1b"/>
        <path id="Path_894" data-name="Path 894" d="M62.539,41.422a.9.9,0,0,0,.3.555.987.987,0,0,0,.614.161,1.113,1.113,0,0,0,.336-.044.713.713,0,0,0,.234-.124.421.421,0,0,0,.139-.183.523.523,0,0,0,.044-.212.39.39,0,0,0-.147-.328,1.008,1.008,0,0,0-.358-.169,4.116,4.116,0,0,0-.468-.1,2.2,2.2,0,0,1-.467-.131.923.923,0,0,1-.358-.256.683.683,0,0,1-.147-.461.814.814,0,0,1,.278-.628,1.158,1.158,0,0,1,.789-.241,1.358,1.358,0,0,1,.8.219,1.016,1.016,0,0,1,.373.738h-.358a.658.658,0,0,0-.27-.5,1,1,0,0,0-.556-.146.788.788,0,0,0-.511.146.462.462,0,0,0-.176.38.372.372,0,0,0,.146.314,1.185,1.185,0,0,0,.358.176c.139.044.3.087.468.124a3.015,3.015,0,0,1,.468.146,1.026,1.026,0,0,1,.358.263.683.683,0,0,1,.146.461.758.758,0,0,1-.1.387.84.84,0,0,1-.256.278,1.25,1.25,0,0,1-.387.168,2.037,2.037,0,0,1-.5.058,1.42,1.42,0,0,1-.482-.08,1.043,1.043,0,0,1-.358-.219,1.021,1.021,0,0,1-.227-.329,1.081,1.081,0,0,1-.1-.4h.358Z" fill="#1d1d1b"/>
        <path id="Path_895" data-name="Path 895" d="M69.541,42.372V38.148h1.447c.117,0,.234,0,.344.007a2.6,2.6,0,0,1,.336.044,1.623,1.623,0,0,1,.321.095,1.71,1.71,0,0,1,.3.168,1.275,1.275,0,0,1,.344.373,2.254,2.254,0,0,1,.212.46,2.972,2.972,0,0,1,.109.49,3.442,3.442,0,0,1,.029.46,2.9,2.9,0,0,1-.029.431,2.678,2.678,0,0,1-.088.424,2,2,0,0,1-.153.4,1.839,1.839,0,0,1-.241.351,1.19,1.19,0,0,1-.322.263,1.633,1.633,0,0,1-.365.154,1.811,1.811,0,0,1-.4.073c-.139.007-.278.022-.417.022H69.541Zm.4-.336H70.9a3.778,3.778,0,0,0,.512-.029,1.379,1.379,0,0,0,.482-.161,1.014,1.014,0,0,0,.344-.285,1.566,1.566,0,0,0,.212-.4,2.221,2.221,0,0,0,.11-.446,3.351,3.351,0,0,0,.029-.453,3.584,3.584,0,0,0-.029-.468,2.306,2.306,0,0,0-.11-.453,1.5,1.5,0,0,0-.219-.394,1.142,1.142,0,0,0-.366-.3,1.326,1.326,0,0,0-.446-.132,4.094,4.094,0,0,0-.519-.029h-.957Z" fill="#1d1d1b"/>
        <path id="Path_896" data-name="Path 896" d="M75.052,38.674v-.519h.387v.519Zm.014,3.7v-3.04h.351v3.04Z" fill="#1d1d1b"/>
        <path id="Path_897" data-name="Path 897" d="M77.983,42.372h-.351v-3.04h.351v.57H78a1.063,1.063,0,0,1,.38-.512,1.157,1.157,0,0,1,.614-.146v.38a.975.975,0,0,0-.489.1.742.742,0,0,0-.307.27,1.162,1.162,0,0,0-.161.4,2.606,2.606,0,0,0-.044.483v1.5Z" fill="#1d1d1b"/>
        <path id="Path_898" data-name="Path 898" d="M81.074,40.94a1.637,1.637,0,0,0,.066.467,1.158,1.158,0,0,0,.19.38.841.841,0,0,0,.322.256.969.969,0,0,0,.446.1.94.94,0,0,0,.592-.182.921.921,0,0,0,.328-.519h.4a2.233,2.233,0,0,1-.168.4,1.277,1.277,0,0,1-.263.321,1.225,1.225,0,0,1-.373.212,1.5,1.5,0,0,1-.5.073,1.517,1.517,0,0,1-.629-.124,1.167,1.167,0,0,1-.431-.336,1.5,1.5,0,0,1-.256-.505,2.161,2.161,0,0,1-.08-.628,1.95,1.95,0,0,1,.1-.629,1.494,1.494,0,0,1,.278-.511,1.205,1.205,0,0,1,.438-.344,1.271,1.271,0,0,1,.585-.124,1.23,1.23,0,0,1,.987.431,1.847,1.847,0,0,1,.35,1.25H81.074Zm1.988-.3A1.579,1.579,0,0,0,83,40.223a1.1,1.1,0,0,0-.183-.343.832.832,0,0,0-.3-.227,1.04,1.04,0,0,0-.833,0,1.029,1.029,0,0,0-.511.578,1.507,1.507,0,0,0-.1.409Z" fill="#1d1d1b"/>
        <path id="Path_899" data-name="Path 899" d="M87.572,40.289a1.06,1.06,0,0,0-.322-.533.885.885,0,0,0-.584-.19.9.9,0,0,0-.461.109.885.885,0,0,0-.314.3,1.335,1.335,0,0,0-.183.416,1.917,1.917,0,0,0,0,.936,1.106,1.106,0,0,0,.5.7.944.944,0,0,0,.468.109.877.877,0,0,0,.628-.219,1,1,0,0,0,.3-.6h.373a1.549,1.549,0,0,1-.154.46,1.142,1.142,0,0,1-.263.358,1.124,1.124,0,0,1-.387.234,1.384,1.384,0,0,1-.512.081,1.493,1.493,0,0,1-.628-.125,1.162,1.162,0,0,1-.432-.336,1.367,1.367,0,0,1-.248-.5,2.2,2.2,0,0,1-.08-.629,2.075,2.075,0,0,1,.087-.606,1.57,1.57,0,0,1,.271-.512,1.271,1.271,0,0,1,1.038-.49,1.371,1.371,0,0,1,.855.256,1.179,1.179,0,0,1,.409.789h-.358Z" fill="#1d1d1b"/>
        <path id="Path_900" data-name="Path 900" d="M91.036,42.387a1.113,1.113,0,0,0-.168.044.786.786,0,0,1-.234.029.566.566,0,0,1-.4-.132.635.635,0,0,1-.139-.475V39.631h-.431v-.292h.431v-.848h.351v.848h.57v.292h-.57v2.083a1.343,1.343,0,0,0,.008.19.208.208,0,0,0,.124.205.528.528,0,0,0,.175.022.507.507,0,0,0,.146-.015.955.955,0,0,0,.147-.029v.3Z" fill="#1d1d1b"/>
        <path id="Path_901" data-name="Path 901" d="M95.487,38.148h3.077v.343H97.227v3.888h-.4V38.491H95.487Z" fill="#1d1d1b"/>
        <path id="Path_902" data-name="Path 902" d="M101.583,42.46a1.509,1.509,0,0,1-.548-.1,1.242,1.242,0,0,1-.446-.3,1.467,1.467,0,0,1-.3-.5,2.022,2.022,0,0,1-.109-.7,2.191,2.191,0,0,1,.087-.628,1.5,1.5,0,0,1,.263-.512,1.274,1.274,0,0,1,.439-.343,1.351,1.351,0,0,1,.614-.125,1.46,1.46,0,0,1,.621.125,1.265,1.265,0,0,1,.439.343,1.514,1.514,0,0,1,.263.5,2.2,2.2,0,0,1,.088.629,2.068,2.068,0,0,1-.1.658,1.428,1.428,0,0,1-.285.5,1.335,1.335,0,0,1-.446.329A1.362,1.362,0,0,1,101.583,42.46Zm1.03-1.608a2.139,2.139,0,0,0-.058-.5,1.226,1.226,0,0,0-.183-.41.861.861,0,0,0-.314-.27,1.012,1.012,0,0,0-.475-.1.969.969,0,0,0-.475.109.936.936,0,0,0-.322.285,1.224,1.224,0,0,0-.182.41,2.046,2.046,0,0,0-.059.482,1.935,1.935,0,0,0,.066.519,1.179,1.179,0,0,0,.2.409.854.854,0,0,0,.322.263,1.092,1.092,0,0,0,.921-.014.879.879,0,0,0,.321-.293,1.3,1.3,0,0,0,.183-.409A1.993,1.993,0,0,0,102.613,40.852Z" fill="#1d1d1b"/>
        <path id="Path_903" data-name="Path 903" d="M109.206,40.187l1.272-2.039h.46L109.4,40.53v1.842H109V40.56l-1.5-2.412h.46Z" fill="#1d1d1b"/>
        <path id="Path_904" data-name="Path 904" d="M113.942,42.46a1.509,1.509,0,0,1-.548-.1,1.242,1.242,0,0,1-.446-.3,1.465,1.465,0,0,1-.3-.5,2,2,0,0,1-.11-.7,2.157,2.157,0,0,1,.088-.628,1.462,1.462,0,0,1,.263-.512,1.27,1.27,0,0,1,.438-.343,1.354,1.354,0,0,1,.614-.125,1.46,1.46,0,0,1,.621.125,1.265,1.265,0,0,1,.439.343,1.5,1.5,0,0,1,.263.5,2.164,2.164,0,0,1,.088.629,2.068,2.068,0,0,1-.1.658,1.4,1.4,0,0,1-.285.5,1.341,1.341,0,0,1-.445.329A1.37,1.37,0,0,1,113.942,42.46Zm1.031-1.608a2.138,2.138,0,0,0-.059-.5,1.224,1.224,0,0,0-.182-.41.873.873,0,0,0-.315-.27,1.012,1.012,0,0,0-.475-.1.972.972,0,0,0-.475.109.932.932,0,0,0-.321.285,1.206,1.206,0,0,0-.183.41,2.046,2.046,0,0,0-.059.482,1.935,1.935,0,0,0,.066.519,1.2,1.2,0,0,0,.2.409.854.854,0,0,0,.322.263,1.092,1.092,0,0,0,.921-.014.89.89,0,0,0,.322-.293,1.3,1.3,0,0,0,.182-.409A1.994,1.994,0,0,0,114.973,40.852Z" fill="#1d1d1b"/>
        <path id="Path_905" data-name="Path 905" d="M119.351,39.332h.351v3.04h-.351v-.416a1.917,1.917,0,0,1-.161.168,1.185,1.185,0,0,1-.205.16,1.146,1.146,0,0,1-.27.125,1.055,1.055,0,0,1-.351.051,1.3,1.3,0,0,1-.512-.088.8.8,0,0,1-.328-.241.865.865,0,0,1-.183-.358,1.711,1.711,0,0,1-.059-.446v-2h.351v2a.866.866,0,0,0,.183.6.763.763,0,0,0,.6.212.816.816,0,0,0,.388-.088.842.842,0,0,0,.292-.241,1.158,1.158,0,0,0,.183-.365,1.556,1.556,0,0,0,.065-.461V39.332Z" fill="#1d1d1b"/>
        <path id="Path_906" data-name="Path 906" d="M122.216,42.372h-.351v-3.04h.351v.57h.014a1.063,1.063,0,0,1,.38-.512,1.159,1.159,0,0,1,.614-.146v.38a.975.975,0,0,0-.489.1.742.742,0,0,0-.307.27,1.162,1.162,0,0,0-.161.4,2.606,2.606,0,0,0-.044.483v1.5Z" fill="#1d1d1b"/>
        <path id="Path_907" data-name="Path 907" d="M131.388,41.809h.015l.921-3.661h.409l-1.111,4.224h-.438l-.987-3.735h-.015l-.979,3.735h-.439l-1.089-4.224h.4l.907,3.661H129l.98-3.661h.446Z" fill="#1d1d1b"/>
        <path id="Path_908" data-name="Path 908" d="M134.524,42.372V38.148h.351v1.608a2.229,2.229,0,0,1,.438-.366,1,1,0,0,1,.541-.139,1.367,1.367,0,0,1,.526.1.887.887,0,0,1,.4.336.782.782,0,0,1,.132.337,2.981,2.981,0,0,1,.022.358v1.988h-.351V40.384a.871.871,0,0,0-.183-.614.8.8,0,0,0-.606-.2.775.775,0,0,0-.3.051,1.236,1.236,0,0,0-.241.131.912.912,0,0,0-.183.19.94.94,0,0,0-.117.227,1.051,1.051,0,0,0-.066.285c-.007.095-.014.19-.014.292v1.637h-.351Z" fill="#1d1d1b"/>
        <path id="Path_909" data-name="Path 909" d="M140.481,40.6c.065-.007.146-.022.241-.036a.773.773,0,0,0,.226-.066.193.193,0,0,0,.11-.139.807.807,0,0,0,.022-.183.6.6,0,0,0-.176-.445.8.8,0,0,0-.584-.176,1.663,1.663,0,0,0-.336.029.818.818,0,0,0-.271.11.665.665,0,0,0-.19.212.84.84,0,0,0-.1.329h-.358a1.078,1.078,0,0,1,.124-.461,1.032,1.032,0,0,1,.271-.314,1.1,1.1,0,0,1,.387-.175,1.885,1.885,0,0,1,.468-.059,1.649,1.649,0,0,1,.431.051.981.981,0,0,1,.351.161.722.722,0,0,1,.234.293,1.036,1.036,0,0,1,.087.445v1.66c0,.138.022.226.073.263s.147.029.3-.03v.278c-.029.008-.066.022-.117.037a.577.577,0,0,1-.153.022,1.13,1.13,0,0,1-.161-.015.267.267,0,0,1-.139-.058.406.406,0,0,1-.088-.1.381.381,0,0,1-.043-.131,1,1,0,0,1-.015-.154,1.521,1.521,0,0,1-1.133.5,1.354,1.354,0,0,1-.387-.052.97.97,0,0,1-.329-.16.786.786,0,0,1-.3-.658c0-.519.358-.819,1.06-.914Zm.592.176a2.026,2.026,0,0,1-.454.124c-.153.022-.307.037-.46.044a1.282,1.282,0,0,0-.629.183.513.513,0,0,0-.226.46.5.5,0,0,0,.058.241.53.53,0,0,0,.147.168.629.629,0,0,0,.211.1.911.911,0,0,0,.242.029,1.555,1.555,0,0,0,.409-.051,1.247,1.247,0,0,0,.358-.161.911.911,0,0,0,.249-.278.757.757,0,0,0,.1-.394Z" fill="#1d1d1b"/>
        <path id="Path_910" data-name="Path 910" d="M144.705,42.387a1.113,1.113,0,0,0-.168.044.786.786,0,0,1-.234.029.566.566,0,0,1-.4-.132.635.635,0,0,1-.139-.475V39.631h-.431v-.292h.431v-.848h.351v.848h.57v.292h-.57v2.083a1.536,1.536,0,0,0,.007.19.211.211,0,0,0,.125.205.524.524,0,0,0,.175.022.507.507,0,0,0,.146-.015.943.943,0,0,0,.146-.029v.3Z" fill="#1d1d1b"/>
        <path id="Path_911" data-name="Path 911" d="M146.766,41.422a.9.9,0,0,0,.3.555.987.987,0,0,0,.614.161,1.113,1.113,0,0,0,.336-.044.713.713,0,0,0,.234-.124.414.414,0,0,0,.139-.183.523.523,0,0,0,.044-.212.39.39,0,0,0-.147-.328,1.008,1.008,0,0,0-.358-.169,4.145,4.145,0,0,0-.467-.1,2.191,2.191,0,0,1-.468-.131.931.931,0,0,1-.358-.256.683.683,0,0,1-.147-.461.814.814,0,0,1,.278-.628,1.159,1.159,0,0,1,.79-.241,1.362,1.362,0,0,1,.8.219,1.019,1.019,0,0,1,.372.738h-.358a.658.658,0,0,0-.27-.5,1,1,0,0,0-.556-.146.79.79,0,0,0-.511.146.462.462,0,0,0-.176.38.372.372,0,0,0,.146.314,1.179,1.179,0,0,0,.359.176c.138.044.3.087.467.124a3.014,3.014,0,0,1,.468.146,1.026,1.026,0,0,1,.358.263.683.683,0,0,1,.146.461.758.758,0,0,1-.095.387.837.837,0,0,1-.255.278,1.266,1.266,0,0,1-.388.168,2.037,2.037,0,0,1-.5.058,1.42,1.42,0,0,1-.482-.08,1.043,1.043,0,0,1-.358-.219,1.021,1.021,0,0,1-.227-.329,1.081,1.081,0,0,1-.1-.4h.358Z" fill="#1d1d1b"/>
        <path id="Path_912" data-name="Path 912" d="M150.457,42.372l1.659-4.224h.453l1.623,4.224h-.409l-.49-1.33h-1.922l-.5,1.33Zm1.045-1.666h1.652l-.826-2.222Z" fill="#1d1d1b"/>
        <path id="Path_913" data-name="Path 913" d="M156.392,43.571h-.351V39.332h.351v.533h.015a1.1,1.1,0,0,1,.2-.263.931.931,0,0,1,.263-.19,1.481,1.481,0,0,1,.3-.117,1.1,1.1,0,0,1,.3-.044,1.475,1.475,0,0,1,.629.125,1.142,1.142,0,0,1,.424.336,1.412,1.412,0,0,1,.241.5,2.562,2.562,0,0,1-.007,1.243,1.442,1.442,0,0,1-.249.511,1.171,1.171,0,0,1-.424.351,1.287,1.287,0,0,1-.6.132,1.433,1.433,0,0,1-.621-.147,1.134,1.134,0,0,1-.468-.424v1.689Zm0-2.7a1.527,1.527,0,0,0,.073.489,1.279,1.279,0,0,0,.205.4,1.057,1.057,0,0,0,.321.278.841.841,0,0,0,.431.1,1,1,0,0,0,.476-.109.859.859,0,0,0,.328-.3,1.3,1.3,0,0,0,.19-.439,2.248,2.248,0,0,0-.036-1.052,1.055,1.055,0,0,0-.219-.373.942.942,0,0,0-.329-.234,1.078,1.078,0,0,0-.41-.08.943.943,0,0,0-.438.1,1.049,1.049,0,0,0-.322.271,1.263,1.263,0,0,0-.2.409A2.039,2.039,0,0,0,156.392,40.867Z" fill="#1d1d1b"/>
        <path id="Path_914" data-name="Path 914" d="M161.267,43.571h-.351V39.332h.351v.533h.015a1.1,1.1,0,0,1,.2-.263.931.931,0,0,1,.263-.19,1.481,1.481,0,0,1,.3-.117,1.1,1.1,0,0,1,.3-.044,1.475,1.475,0,0,1,.629.125,1.142,1.142,0,0,1,.424.336,1.412,1.412,0,0,1,.241.5,2.562,2.562,0,0,1-.007,1.243,1.442,1.442,0,0,1-.249.511,1.171,1.171,0,0,1-.424.351,1.287,1.287,0,0,1-.6.132,1.433,1.433,0,0,1-.621-.147,1.134,1.134,0,0,1-.468-.424v1.689Zm0-2.7a1.527,1.527,0,0,0,.073.489,1.279,1.279,0,0,0,.205.4,1.057,1.057,0,0,0,.321.278.838.838,0,0,0,.431.1,1,1,0,0,0,.476-.109.859.859,0,0,0,.328-.3,1.3,1.3,0,0,0,.19-.439,2.248,2.248,0,0,0-.036-1.052,1.055,1.055,0,0,0-.219-.373.942.942,0,0,0-.329-.234,1.078,1.078,0,0,0-.41-.08.943.943,0,0,0-.438.1,1.049,1.049,0,0,0-.322.271,1.263,1.263,0,0,0-.2.409A2.039,2.039,0,0,0,161.267,40.867Z" fill="#1d1d1b"/>
      </g>
    </g>
    <path id="Path_915" data-name="Path 915" d="M31.206,16.725h2.953L30.241,30.641H27.464L25.783,22.5l-.49-2.689L24.8,22.5l-1.681,8.142h-2.7L16.471,16.725h3.085L21.4,24.692l.394,2.222.41-2.171,1.564-8.018h3.069l1.652,7.967.424,2.222.424-2.134ZM45,24.6v6.045H42.25V24.385a2.711,2.711,0,0,0-.285-1.337,1.426,1.426,0,0,0-1.4-.717,1.915,1.915,0,0,0-1.616.709,3.282,3.282,0,0,0-.555,2.032v5.569H35.716V16.777H38.4v4.918a3.253,3.253,0,0,1,1.352-1.249,3.859,3.859,0,0,1,1.623-.351,4.394,4.394,0,0,1,1.732.329,3.031,3.031,0,0,1,1.279,1.008,2.735,2.735,0,0,1,.519,1.184A14.027,14.027,0,0,1,45,24.6Zm2.9-3.135a4.388,4.388,0,0,1,3.662-1.36,6.535,6.535,0,0,1,3,.673,2.573,2.573,0,0,1,1.316,2.529v4.721c0,.329.007.724.022,1.192a1.544,1.544,0,0,0,.16.716,1.042,1.042,0,0,0,.4.314v.4H53.535a2.884,2.884,0,0,1-.169-.585c-.029-.183-.058-.387-.073-.621a5.512,5.512,0,0,1-1.286,1.03,3.827,3.827,0,0,1-1.966.5,3.379,3.379,0,0,1-2.31-.8,2.854,2.854,0,0,1-.913-2.259,2.944,2.944,0,0,1,1.462-2.748,6.518,6.518,0,0,1,2.36-.658l.914-.117a4.222,4.222,0,0,0,1.067-.234.8.8,0,0,0,.577-.767.912.912,0,0,0-.438-.877,2.734,2.734,0,0,0-1.286-.241,1.686,1.686,0,0,0-1.353.475,1.989,1.989,0,0,0-.38.943H47.147A3.906,3.906,0,0,1,47.9,21.469Zm2,7.228a1.425,1.425,0,0,0,.928.315,2.73,2.73,0,0,0,1.6-.512,2.166,2.166,0,0,0,.76-1.856v-1a3.315,3.315,0,0,1-.512.263,4.436,4.436,0,0,1-.716.183l-.606.11a4.125,4.125,0,0,0-1.221.365,1.235,1.235,0,0,0-.621,1.14A1.157,1.157,0,0,0,49.9,28.7Zm13.076.03v2.009l-1.272.044a3.443,3.443,0,0,1-2.609-.657,1.974,1.974,0,0,1-.454-1.426V22.361H57.211V20.446h1.432V17.573H61.3v2.873h1.674v1.915H61.3V27.8c0,.424.051.687.161.79a1.786,1.786,0,0,0,.979.153c.08,0,.168,0,.263-.007A1.73,1.73,0,0,0,62.978,28.727Zm5.912-.783,2.127-7.593h2.865l-3.53,10.122a14.24,14.24,0,0,1-1.615,3.633,3.076,3.076,0,0,1-2.383.7c-.241,0-.431,0-.577-.007s-.366-.014-.651-.029V32.615l.344.022a4.3,4.3,0,0,0,.753-.029,1.316,1.316,0,0,0,.606-.22,1.453,1.453,0,0,0,.439-.672,1.56,1.56,0,0,0,.168-.621L63.657,20.351h2.99Zm12.944,3.085a6.073,6.073,0,0,1-4.56-1.623,7.508,7.508,0,0,1-2.113-5.737q0-3.827,2.113-5.738a6.076,6.076,0,0,1,4.56-1.622,6.079,6.079,0,0,1,4.561,1.622A7.384,7.384,0,0,1,88.5,23.669a7.512,7.512,0,0,1-2.105,5.737A6.075,6.075,0,0,1,81.834,31.029Zm2.749-3.735a5.725,5.725,0,0,0,1.008-3.625,5.655,5.655,0,0,0-1.016-3.618,3.6,3.6,0,0,0-5.5-.007,5.634,5.634,0,0,0-1.031,3.625,5.636,5.636,0,0,0,1.031,3.625,3.613,3.613,0,0,0,5.5,0Zm11.094-4.458A2.217,2.217,0,0,0,93.5,23.9a4.169,4.169,0,0,0-.314,1.835v4.919H90.473v-10.3h2.566v1.79a5.446,5.446,0,0,1,1.089-1.4,2.943,2.943,0,0,1,1.966-.636.616.616,0,0,1,.124.007c.037,0,.11.008.234.015v2.755c-.168-.021-.321-.029-.453-.036S95.758,22.836,95.677,22.836Zm11.716-6.089v13.9h-2.616V29.224a3.762,3.762,0,0,1-1.316,1.33,3.707,3.707,0,0,1-1.834.416,3.813,3.813,0,0,1-3.033-1.461,5.62,5.62,0,0,1-1.236-3.743,6.43,6.43,0,0,1,1.214-4.144,3.955,3.955,0,0,1,3.245-1.513,3.336,3.336,0,0,1,1.659.41,3.253,3.253,0,0,1,1.177,1.14V16.747Zm-7.25,8.815a4.069,4.069,0,0,0,.563,2.273,1.9,1.9,0,0,0,1.7.862,2.005,2.005,0,0,0,1.739-.848,3.758,3.758,0,0,0,.592-2.2,3.363,3.363,0,0,0-.95-2.7,2.03,2.03,0,0,0-1.359-.49,1.888,1.888,0,0,0-1.732.892A4.07,4.07,0,0,0,100.143,25.562Zm18.506,2.061a3.4,3.4,0,0,1-.95,1.856,4.664,4.664,0,0,1-3.7,1.5,5.234,5.234,0,0,1-3.465-1.265,5.093,5.093,0,0,1-1.5-4.115,5.742,5.742,0,0,1,1.352-4.1,4.638,4.638,0,0,1,3.516-1.425,5.421,5.421,0,0,1,2.317.482,4.085,4.085,0,0,1,1.7,1.52,5.126,5.126,0,0,1,.783,2.127,15.047,15.047,0,0,1,.087,2.04H111.75a2.563,2.563,0,0,0,.972,2.17,2.3,2.3,0,0,0,1.337.388,1.912,1.912,0,0,0,1.352-.475,2.16,2.16,0,0,0,.5-.709h2.741Zm-2.668-3.158a2.327,2.327,0,0,0-.643-1.615,2.029,2.029,0,0,0-1.44-.555,1.837,1.837,0,0,0-1.447.584,2.918,2.918,0,0,0-.643,1.586Zm9.787-1.629A2.215,2.215,0,0,0,123.59,23.9a4.155,4.155,0,0,0-.314,1.835v4.919h-2.712v-10.3h2.565v1.79a5.468,5.468,0,0,1,1.089-1.4,2.944,2.944,0,0,1,1.966-.636.621.621,0,0,1,.125.007c.036,0,.109.008.234.015v2.755c-.168-.021-.322-.029-.454-.036S125.848,22.836,125.768,22.836Zm3.033,7.805V28.968h1.389v1.673ZM140.488,23.9a3.3,3.3,0,0,0-1.045-1.717,2.851,2.851,0,0,0-1.879-.614,3.01,3.01,0,0,0-1.5.358,3.056,3.056,0,0,0-1.023.957,4.434,4.434,0,0,0-.592,1.353,6.275,6.275,0,0,0-.008,3.033,4.222,4.222,0,0,0,.578,1.33,2.947,2.947,0,0,0,1.023.943,3.056,3.056,0,0,0,1.52.351,2.906,2.906,0,0,0,2.04-.7,3.286,3.286,0,0,0,.979-1.937H141.8a5.757,5.757,0,0,1-.482,1.491,3.908,3.908,0,0,1-.855,1.162,3.662,3.662,0,0,1-1.243.753,4.812,4.812,0,0,1-1.652.263,4.684,4.684,0,0,1-2.032-.4,3.733,3.733,0,0,1-1.4-1.1,4.578,4.578,0,0,1-.818-1.645,7.553,7.553,0,0,1-.264-2.031,6.514,6.514,0,0,1,.293-1.967,5.044,5.044,0,0,1,.862-1.659,4.184,4.184,0,0,1,1.418-1.147,4.263,4.263,0,0,1,1.952-.424,4.352,4.352,0,0,1,2.762.819,3.831,3.831,0,0,1,1.323,2.543h-1.169Zm7.506,7.017a5.043,5.043,0,0,1-1.776-.344,4.014,4.014,0,0,1-1.447-.972,4.747,4.747,0,0,1-.98-1.615,6.455,6.455,0,0,1-.358-2.258,6.955,6.955,0,0,1,.285-2.025,4.732,4.732,0,0,1,.856-1.644A4.037,4.037,0,0,1,146,20.943a4.6,4.6,0,0,1,2-.41,4.653,4.653,0,0,1,2.017.41,4.123,4.123,0,0,1,1.426,1.1,4.5,4.5,0,0,1,.847,1.645,7.288,7.288,0,0,1,.278,2.032,6.654,6.654,0,0,1-.321,2.126,4.859,4.859,0,0,1-.921,1.638,3.935,3.935,0,0,1-1.448,1.052A4.647,4.647,0,0,1,147.994,30.912Zm3.34-5.189a6.908,6.908,0,0,0-.19-1.638,3.75,3.75,0,0,0-.592-1.322,2.848,2.848,0,0,0-1.023-.885,3.368,3.368,0,0,0-1.542-.321,2.964,2.964,0,0,0-2.566,1.279,4.1,4.1,0,0,0-.592,1.33,6.393,6.393,0,0,0-.19,1.549,6.079,6.079,0,0,0,.22,1.681,4.056,4.056,0,0,0,.635,1.323,2.891,2.891,0,0,0,1.046.855,3.237,3.237,0,0,0,1.447.307,3.1,3.1,0,0,0,1.527-.351,2.982,2.982,0,0,0,1.038-.942,4.393,4.393,0,0,0,.592-1.331A5.863,5.863,0,0,0,151.334,25.723Zm4.3,4.918h-1.14V20.8h1.14v1.483h.036a3.01,3.01,0,0,1,1.257-1.3,3.66,3.66,0,0,1,1.784-.445,3.874,3.874,0,0,1,1.162.153,2.676,2.676,0,0,1,.8.409,2.384,2.384,0,0,1,.548.6,4.083,4.083,0,0,1,.373.738,3.283,3.283,0,0,1,1.323-1.433,3.824,3.824,0,0,1,1.893-.467,3.263,3.263,0,0,1,1.608.336,2.314,2.314,0,0,1,.921.877A3.322,3.322,0,0,1,167.764,23a10.358,10.358,0,0,1,.1,1.448v6.212h-1.14v-6.8a2.779,2.779,0,0,0-.446-1.674,1.931,1.931,0,0,0-1.659-.614,2.759,2.759,0,0,0-2.222,1.125,2.184,2.184,0,0,0-.314.578,4.983,4.983,0,0,0-.2.694,4.872,4.872,0,0,0-.1.724c-.022.241-.029.46-.029.665v5.3h-1.141V23.844a2.781,2.781,0,0,0-.445-1.674,1.955,1.955,0,0,0-1.667-.606,2.759,2.759,0,0,0-2.222,1.125,2.184,2.184,0,0,0-.314.578,5.123,5.123,0,0,0-.2.694,5.009,5.009,0,0,0-.1.724c-.022.241-.029.46-.029.665v5.291Z" fill="url(#linear-gradient)"/>
    <line id="Line_2" data-name="Line 2" x2="150.233" transform="translate(17.531 36.262)" fill="none" stroke="#1d1d1b" stroke-miterlimit="10" stroke-width="0.048"/>
  </g>
</svg>
