<svg xmlns="http://www.w3.org/2000/svg" width="15.727" height="10.34" viewBox="0 0 15.727 10.34">
  <g id="QAmXLu" transform="translate(-95.562 -3908.299)">
    <g id="Group_80" data-name="Group 80">
      <path id="Path_940" data-name="Path 940" d="M103.425,3918.639H96.938a1.343,1.343,0,0,1-1.352-1.091,1.428,1.428,0,0,1-.024-.277q0-3.806,0-7.611a1.343,1.343,0,0,1,1.357-1.359h13.013a1.346,1.346,0,0,1,1.357,1.369v7.6a1.344,1.344,0,0,1-1.367,1.368Zm6.778-9.693a.682.682,0,0,0-.3-.053H96.961a.726.726,0,0,0-.3.047c.02.047.06.066.092.093q3.3,2.737,6.6,5.476c.061.051.094.051.154,0q3.206-2.663,6.413-5.322Zm-13.585,9.031a.678.678,0,0,0,.33.068h12.9c.039,0,.079,0,.119,0a.6.6,0,0,0,.261-.067c-.018-.021-.032-.039-.048-.055q-2.208-2.21-4.415-4.42c-.053-.053-.08-.037-.127,0q-.99.824-1.982,1.645a.313.313,0,0,1-.469,0q-.992-.822-1.982-1.646c-.054-.045-.081-.048-.134.005q-2.2,2.2-4.4,4.405C96.655,3917.933,96.639,3917.953,96.618,3917.977Zm-.414-.441c.031-.028.053-.048.073-.068q2.16-2.16,4.321-4.318c.069-.07.068-.1-.008-.161q-1.8-1.485-3.591-2.977c-.24-.2-.481-.4-.719-.6-.055-.047-.077-.042-.094.03a1.018,1.018,0,0,0-.027.226v7.6A.635.635,0,0,0,96.2,3917.536Zm14.415.009a.476.476,0,0,0,.07-.286q0-3.791,0-7.58a1.1,1.1,0,0,0-.016-.2c-.023-.124-.03-.125-.125-.045q-2.148,1.781-4.295,3.561c-.07.057-.068.084-.006.147q2.152,2.145,4.3,4.3A.8.8,0,0,1,110.619,3917.545Z" fill="#000"/>
    </g>
  </g>
</svg>
