<svg xmlns="http://www.w3.org/2000/svg" xmlns:xlink="http://www.w3.org/1999/xlink" width="35.996" height="35.996" viewBox="0 0 35.996 35.996">
  <defs>
    <linearGradient id="linear-gradient" y1="0.5" x2="1" y2="0.5" gradientUnits="objectBoundingBox">
      <stop offset="0" stop-color="#189332"/>
      <stop offset="1" stop-color="#1b984b"/>
    </linearGradient>
  </defs>
  <g id="Group_60" data-name="Group 60" transform="translate(-32.154 -2799.543)">
    <rect id="Rectangle_65" data-name="Rectangle 65" width="35.996" height="35.996" rx="1.723" transform="translate(32.154 2799.543)" fill="url(#linear-gradient)"/>
    <g id="_0J8vaE" data-name="0J8vaE">
      <g id="Group_59" data-name="Group 59">
        <path id="Path_930" data-name="Path 930" d="M53.414,2813.962l-.567.543c-.48.462-.957.927-1.441,1.385a1.1,1.1,0,0,1-1.209.254,1.038,1.038,0,0,1-.377-1.732c.6-.592,1.212-1.172,1.82-1.756q1.508-1.451,3.012-2.9c.088-.085.132-.072.213.005q2.388,2.305,4.781,4.6a1.039,1.039,0,0,1,.1,1.491,1.119,1.119,0,0,1-1.577.087c-.553-.51-1.088-1.039-1.631-1.561l-.443-.423a.143.143,0,0,0-.025.118q0,4.991,0,9.983a1.311,1.311,0,1,1-2.621.049c0-1.526,0-3.052,0-4.578v-5.552Z" fill="#f2f2f2"/>
        <path id="Path_931" data-name="Path 931" d="M46.879,2821.109c.048,0,.069-.044.1-.071.644-.618,1.285-1.239,1.931-1.854a1.126,1.126,0,0,1,1.8.29,1.016,1.016,0,0,1-.214,1.192c-.764.742-1.534,1.479-2.3,2.217q-1.258,1.212-2.517,2.421c-.141.136-.1.142-.243,0l-4.766-4.585a1.033,1.033,0,0,1-.1-1.5,1.121,1.121,0,0,1,1.587-.074c.622.582,1.23,1.178,1.844,1.767.07.068.142.134.241.228v-.235q0-4.954,0-9.909a1.31,1.31,0,1,1,2.62-.029c.007.876,0,1.753,0,2.629q0,3.688,0,7.379C46.862,2821.022,46.848,2821.069,46.879,2821.109Z" fill="#f2f2f2"/>
      </g>
    </g>
  </g>
</svg>
