<svg xmlns="http://www.w3.org/2000/svg" width="14.106" height="11.619" viewBox="0 0 14.106 11.619">
  <g id="Group_69" data-name="Group 69" transform="translate(-233.37 -3870.725)">
    <g id="Group_68" data-name="Group 68">
      <g id="Group_63" data-name="Group 63">
        <path id="Path_932" data-name="Path 932" d="M247.423,3872.118a5.766,5.766,0,0,1-1.425.407c.23-.038.568-.454.7-.622a2.618,2.618,0,0,0,.474-.864c.012-.025.022-.056,0-.074a.078.078,0,0,0-.075.006,7.322,7.322,0,0,1-1.693.648.114.114,0,0,1-.117-.031,1.338,1.338,0,0,0-.148-.152,2.977,2.977,0,0,0-.82-.5,2.858,2.858,0,0,0-1.257-.2,3.018,3.018,0,0,0-1.193.337,3.078,3.078,0,0,0-.963.787,2.95,2.95,0,0,0-.574,1.151,3.106,3.106,0,0,0-.031,1.215c.009.068,0,.077-.058.068a9.045,9.045,0,0,1-5.817-2.96c-.067-.078-.1-.078-.16.006a2.948,2.948,0,0,0,.5,3.484c.114.108.231.216.357.315a2.964,2.964,0,0,1-1.122-.315c-.068-.042-.1-.018-.108.059a1.812,1.812,0,0,0,.018.333,2.985,2.985,0,0,0,1.838,2.378,1.814,1.814,0,0,0,.373.114,3.335,3.335,0,0,1-1.1.034c-.081-.015-.111.025-.081.1a3.1,3.1,0,0,0,2.313,1.936c.105.019.21.019.315.043-.006.01-.013.01-.019.019a3.654,3.654,0,0,1-1.579.837,5.643,5.643,0,0,1-2.4.307c-.129-.019-.156-.017-.191,0s0,.053.037.086c.164.108.33.2.5.3a7.892,7.892,0,0,0,1.6.641,8.54,8.54,0,0,0,8.292-1.939,8.7,8.7,0,0,0,2.294-6.347c0-.092.108-.142.172-.19a5.589,5.589,0,0,0,1.124-1.174.338.338,0,0,0,.069-.224v-.013C247.476,3872.081,247.481,3872.092,247.423,3872.118Z" fill="#000"/>
      </g>
      <g id="Group_64" data-name="Group 64">
        <path id="Path_933" data-name="Path 933" d="M237.559,3882.295Z" fill="#000" fill-rule="evenodd"/>
      </g>
      <g id="Group_65" data-name="Group 65">
        <path id="Path_934" data-name="Path 934" d="M237.559,3882.295Z" fill="#000" fill-rule="evenodd"/>
      </g>
      <g id="Group_66" data-name="Group 66">
        <path id="Path_935" data-name="Path 935" d="M238.034,3882.307c0-.024.25,0,0,0C238.034,3882.295,238.065,3882.307,238.034,3882.307Z" fill="#000" fill-rule="evenodd"/>
      </g>
      <g id="Group_67" data-name="Group 67">
        <path id="Path_936" data-name="Path 936" d="M243.023,3870.743a.051.051,0,0,1-.058,0Z" fill="#000" fill-rule="evenodd"/>
      </g>
    </g>
  </g>
</svg>
